<?xml version="1.0" standalone="no"?>
<!DOCTYPE svg PUBLIC "-//W3C//DTD SVG 20010904//EN"
 "http://www.w3.org/TR/2001/REC-SVG-20010904/DTD/svg10.dtd">
<svg version="1.0" xmlns="http://www.w3.org/2000/svg"
 width="1024.000000pt" height="1024.000000pt" viewBox="0 0 1024.000000 1024.000000"
 preserveAspectRatio="xMidYMid meet">
<metadata>
Created by potrace 1.11, written by Peter Selinger 2001-2013
</metadata>
<g transform="translate(0.000000,1024.000000) scale(0.100000,-0.100000)"
fill="#000000" stroke="none">
<path d="M4870 10234 c-663 -43 -1200 -166 -1747 -400 -663 -283 -1196 -653
-1714 -1190 -274 -285 -527 -624 -733 -983 -901 -1569 -901 -3513 0 -5082 157
-275 376 -584 576 -814 89 -101 326 -342 443 -450 473 -433 1130 -821 1750
-1035 365 -126 763 -212 1180 -256 223 -24 767 -24 990 0 670 71 1259 243
1838 538 373 190 797 483 1092 754 395 362 704 738 967 1174 969 1608 969
3651 0 5260 -231 384 -473 690 -799 1011 -183 180 -220 214 -363 331 -390 317
-825 575 -1300 771 -439 181 -929 302 -1430 352 -146 15 -629 27 -750 19z
m346 -2134 c464 -37 772 -106 1032 -230 136 -65 229 -128 326 -220 255 -242
380 -557 402 -1010 11 -236 -19 -456 -92 -680 -170 -518 -547 -915 -1016
-1069 -38 -13 -68 -26 -68 -29 1 -4 32 -27 71 -50 84 -53 208 -168 289 -269
124 -154 318 -471 615 -1008 338 -610 443 -783 529 -869 64 -63 90 -75 294
-127 l162 -42 0 -194 0 -194 -567 3 c-564 3 -568 3 -609 25 -124 66 -274 326
-623 1078 -274 589 -514 1050 -635 1220 -66 92 -174 205 -239 248 l-52 36
-517 3 -518 3 0 -1072 0 -1072 43 -6 c52 -7 725 -75 744 -75 10 0 13 -40 13
-195 l0 -195 -1155 0 -1155 0 0 195 c0 117 4 195 10 195 13 0 589 69 628 76
l32 5 0 2489 c0 1370 -1 2490 -2 2490 -2 1 -142 24 -313 53 l-310 53 -3 192
-2 192 577 0 c575 0 685 4 1173 39 289 21 742 26 936 11z"/>
<path d="M4510 7683 c-36 -2 -161 -12 -278 -23 -117 -11 -217 -20 -223 -20 -5
0 -9 -468 -9 -1240 l0 -1240 23 -5 c13 -4 279 -5 593 -3 l569 4 95 27 c361
104 605 352 714 730 98 337 96 790 -4 1088 -174 521 -615 724 -1480 682z"/>
</g>
</svg>
