<svg version="1" xmlns="http://www.w3.org/2000/svg" width="1365.333" height="1365.333" viewBox="0 0 1024.000000 1024.000000"><path d="M487 .6c-66.3 4.3-120 16.6-174.7 40-66.3 28.3-119.6 65.3-171.4 119-27.4 28.5-52.7 62.4-73.3 98.3-90.1 156.9-90.1 351.3 0 508.2 15.7 27.5 37.6 58.4 57.6 81.4 8.9 10.1 32.6 34.2 44.3 45 47.3 43.3 113 82.1 175 103.5 36.5 12.6 76.3 21.2 118 25.6 22.3 2.4 76.7 2.4 99 0 67-7.1 125.9-24.3 183.8-53.8 37.3-19 79.7-48.3 109.2-75.4 39.5-36.2 70.4-73.8 96.7-117.4 96.9-160.8 96.9-365.1 0-526-23.1-38.4-47.3-69-79.9-101.1-18.3-18-22-21.4-36.3-33.1-39-31.7-82.5-57.5-130-77.1-43.9-18.1-92.9-30.2-143-35.2C547.4 1 499.1-.2 487 .6zM521.6 214c46.4 3.7 77.2 10.6 103.2 23 13.6 6.5 22.9 12.8 32.6 22 25.5 24.2 38 55.7 40.2 101 1.1 23.6-1.9 45.6-9.2 68-17 51.8-54.7 91.5-101.6 106.9-3.8 1.3-6.8 2.6-6.8 2.9.1.4 3.2 2.7 7.1 5 8.4 5.3 20.8 16.8 28.9 26.9 12.4 15.4 31.8 47.1 61.5 100.8 33.8 61 44.3 78.3 52.9 86.9 6.4 6.3 9 7.5 29.4 12.7l16.2 4.2v38.8l-56.7-.3c-56.4-.3-56.8-.3-60.9-2.5-12.4-6.6-27.4-32.6-62.3-107.8-27.4-58.9-51.4-105-63.5-122-6.6-9.2-17.4-20.5-23.9-24.8l-5.2-3.6-51.7-.3-51.8-.3v214.4l4.3.6c5.2.7 72.5 7.5 74.4 7.5 1 0 1.3 4 1.3 19.5V813H249v-19.5c0-11.7.4-19.5 1-19.5 1.3 0 58.9-6.9 62.8-7.6l3.2-.5V517c0-137-.1-249-.2-249-.2-.1-14.2-2.4-31.3-5.3l-31-5.3-.3-19.2-.2-19.2h57.7c57.5 0 68.5-.4 117.3-3.9 28.9-2.1 74.2-2.6 93.6-1.1z"/><path d="M451 255.7c-3.6.2-16.1 1.2-27.8 2.3-11.7 1.1-21.7 2-22.3 2-.5 0-.9 46.8-.9 124v124l2.3.5c1.3.4 27.9.5 59.3.3l56.9-.4 9.5-2.7c36.1-10.4 60.5-35.2 71.4-73 9.8-33.7 9.6-79-.4-108.8-17.4-52.1-61.5-72.4-148-68.2z"/></svg>